<svg xmlns="http://www.w3.org/2000/svg" width="1451" height="212" fill="none" viewBox="0 0 1451 212"><mask id="mask0_30_16" style="mask-type:luminance" width="166" height="142" x="0" y="35" maskUnits="userSpaceOnUse"><path fill="#fff" d="M166 35.5283H0V176.472H166V35.5283Z"/></mask><g mask="url(#mask0_30_16)"><path fill="#FF5CAA" d="M155.736 121.287C155.736 124.533 155.147 127.638 154.068 130.501C150.377 140.278 140.999 147.224 130.008 147.224C118.761 147.224 109.204 139.949 105.704 129.809C84.9262 131.315 73.0446 121.952 68.1043 104.105C55.6249 100.683 46.4519 89.1795 46.4519 75.5122C46.4519 66.673 50.2911 58.736 56.38 53.3104C61.5611 48.6858 68.3753 45.8804 75.8401 45.8804C84.3921 45.8804 92.0931 49.5619 97.4568 55.4466C101.065 53.0679 105.376 51.6891 110.007 51.6891C113.239 51.6891 116.319 52.3634 119.11 53.5789C127.186 57.0936 132.866 65.1443 132.992 74.548C132.996 74.658 132.996 74.7637 132.996 74.8741L132.992 75.2661V75.2704C134.166 75.0105 135.385 74.8741 136.639 74.8741C142.239 74.8741 147.215 77.5785 150.35 81.7624H150.355C152.53 84.6649 153.819 88.2807 153.819 92.2006C153.826 96.266 152.406 100.203 149.809 103.312C149.614 103.552 149.411 103.786 149.201 104.013C153.268 108.598 155.736 114.654 155.736 121.287Z"/><path stroke="#103849" stroke-linecap="round" stroke-linejoin="round" stroke-miterlimit="10" stroke-width="4.482" d="M109.718 73.4169C105.064 78.5175 102.221 85.3259 102.221 92.8041C102.221 108.62 114.938 121.442 130.623 121.442C132.647 121.443 134.665 121.227 136.644 120.797M74.5947 64.1728C75.3053 74.516 83.8519 82.6843 94.2903 82.6843M125.689 78.8433C127.8 77.0747 130.304 75.8478 132.987 75.2675M97.4529 55.4433C94.1462 57.6142 91.4292 60.6228 89.5992 64.1728"/><path stroke="#103849" stroke-linejoin="round" stroke-miterlimit="10" stroke-width="3.921" d="M155.733 121.282C155.733 135.609 144.215 147.22 130.005 147.22C118.758 147.22 109.201 139.944 105.701 129.805C84.9232 131.31 73.0417 121.947 68.1014 104.101C55.622 100.679 46.449 89.1749 46.449 75.5077C46.449 59.1416 59.6053 45.8757 75.8372 45.8757C84.3891 45.8757 92.0901 49.5573 97.4546 55.442C101.062 53.0633 105.373 51.6846 110.004 51.6846C122.701 51.6846 132.993 62.0661 132.993 74.8694L132.989 75.2616V75.2659C134.163 75.0059 135.382 74.8694 136.636 74.8694C146.123 74.8694 153.815 82.6252 153.815 92.1961C153.815 96.7634 152.064 100.912 149.198 104.008C153.265 108.593 155.733 114.649 155.733 121.282Z"/><path stroke="#103849" stroke-linecap="round" stroke-linejoin="round" stroke-miterlimit="10" stroke-width="4.482" d="M149.199 104.008C149.199 104.008 147.205 101.921 144.477 99.7496M72.4834 151.047C71.3573 148.675 70.6368 146.129 70.3523 143.514"/><path fill="#FF5CAA" d="M122.928 133.009C123.837 135.553 124.301 138.237 124.299 140.941C124.299 154.85 112.191 166.12 97.2516 166.12C86.1742 166.12 76.6558 159.923 72.4802 151.049C69.0387 153.406 64.9102 154.78 60.4767 154.78C50.5356 154.78 42.1485 147.882 39.5191 138.448C37.6419 138.92 35.7143 139.158 33.7795 139.157C20.7932 139.157 10.2617 128.542 10.2617 115.444C10.2617 105.384 16.4773 96.7874 25.2483 93.3473C24.9034 91.9074 24.7199 90.4144 24.7199 88.8816C24.7199 77.0032 35.6665 67.3752 49.1724 67.3752C56.9258 67.3752 63.8442 70.5545 68.3216 75.5051C71.9125 73.5628 76.0534 72.449 80.4652 72.449C94.1501 72.449 105.245 83.1472 105.245 96.3424C105.246 96.6536 105.239 96.9648 105.223 97.2756C116.515 99.3632 125.097 109.82 125.097 122.407C125.097 126.19 124.324 129.781 122.928 133.009Z"/><path stroke="#103849" stroke-linecap="round" stroke-linejoin="round" stroke-miterlimit="10" stroke-width="4.482" d="M114.156 121.288C118.187 124.291 121.272 128.352 122.931 133.012M39.523 138.451C38.9637 136.452 38.6666 134.341 38.6666 132.157C38.6666 123.242 43.642 115.531 50.8669 111.844M31.3767 91.8616C29.2364 92.0819 27.1834 92.5886 25.2524 93.3503M68.3306 75.5125L68.3257 75.5081C65.2554 77.1819 62.5909 79.4638 60.5074 82.1857"/><path stroke="#103849" stroke-linejoin="round" stroke-miterlimit="10" stroke-width="3.921" d="M122.94 133.01C123.849 135.554 124.313 138.238 124.311 140.942C124.311 154.852 112.203 166.122 97.2636 166.122C86.187 166.122 76.6684 159.925 72.4927 151.05C69.0512 153.407 64.9227 154.781 60.4892 154.781C50.548 154.781 42.161 147.884 39.5317 138.45C37.6543 138.921 35.7267 139.16 33.792 139.159C20.8057 139.159 10.2742 128.544 10.2742 115.446C10.2742 105.386 16.4899 96.7889 25.2608 93.3489C24.9158 91.909 24.7324 90.4159 24.7324 88.8832C24.7324 77.0047 35.679 67.3767 49.1849 67.3767C56.9383 67.3767 63.8567 70.556 68.3341 75.5067C71.9249 73.5643 76.0658 72.4505 80.478 72.4505C94.1628 72.4505 105.257 83.1488 105.257 96.344C105.259 96.6552 105.251 96.9663 105.235 97.2771C116.527 99.3648 125.11 109.821 125.11 122.409C125.11 126.192 124.337 129.782 122.94 133.009L122.94 133.01Z"/><path stroke="#103849" stroke-linecap="round" stroke-linejoin="round" stroke-miterlimit="10" stroke-width="4.482" d="M84.0851 104.376C88.4356 99.7607 94.4421 96.902 101.072 96.902C102.488 96.902 103.873 97.0298 105.222 97.2802M103.666 127.282C100.239 131.603 94.9652 134.372 89.0503 134.372C78.7199 134.372 70.3462 125.928 70.3462 115.513C70.3396 111.164 71.83 106.947 74.5632 103.583"/><path stroke="#103849" stroke-linecap="round" stroke-linejoin="round" stroke-miterlimit="10" stroke-width="4.482" d="M97.3268 143.709C97.3268 140.005 96.4005 136.521 94.7663 133.478M58.2367 131.663C61.3204 127.056 66.1215 123.722 71.717 122.591M24.8914 115.464C27.2606 114.518 29.7861 114.031 32.3345 114.032C36.4207 114.027 40.4113 115.277 43.7742 117.618M63.3456 98.1064C62.0729 98.4843 60.7258 98.6868 59.3315 98.6868C55.631 98.6917 52.0757 97.2352 49.427 94.6294M124.732 97.1868C126.69 95.7139 129.068 94.9199 131.511 94.9237C132.19 94.9233 132.867 94.984 133.535 95.1051"/><path stroke="#103849" stroke-linejoin="round" stroke-miterlimit="10" stroke-width="7.843" d="M151.22 104.022C153.893 100.678 155.352 96.5306 155.352 92.2007C155.352 81.7967 146.959 73.3321 136.643 73.3321C135.922 73.3321 135.202 73.3744 134.489 73.4577C133.759 60.4798 123.058 50.1479 110.01 50.1479C105.66 50.1479 101.433 51.2964 97.7098 53.4806C91.9084 47.635 84.0445 44.3474 75.8431 44.3388C62.0965 44.3388 50.4219 53.4343 46.4144 65.9682C33.3845 67.1973 23.1996 77.0047 23.1996 88.8842C23.1996 90.0664 23.3021 91.2507 23.5043 92.4187C14.4931 96.4909 8.7417 105.392 8.7417 115.446C8.7417 129.372 19.9775 140.701 33.7881 140.701C35.3652 140.701 36.9389 140.553 38.4886 140.258C41.7666 149.786 50.6165 156.323 60.4857 156.323C64.4901 156.326 68.4246 155.264 71.8926 153.246C76.7752 162.059 86.5424 167.664 97.2603 167.664C110.309 167.664 121.336 159.439 124.743 148.245C126.456 148.585 128.219 148.765 130.012 148.765C145.041 148.765 157.269 136.438 157.269 121.287C157.269 114.975 155.13 108.896 151.22 104.022Z"/><path fill="#F0F0F0" d="M75.8377 35.5283C67.7626 35.5283 59.9951 37.9529 53.3751 42.5395C47.6591 46.4997 43.128 51.8414 40.135 58.1137C25.566 61.6736 15.1498 73.4949 14.4913 87.4737C5.47396 93.7866 0 104.21 0 115.445C0 134.031 14.8399 149.187 33.1986 149.503C38.9955 159.107 49.3296 165.13 60.4802 165.13C63.3288 165.13 66.1281 164.75 68.8433 163.995C75.8708 171.875 86.1955 176.472 97.2549 176.472C104.746 176.472 112.002 174.329 118.24 170.279C123.308 166.988 127.392 162.643 130.218 157.571C149.968 157.457 165.999 141.223 165.999 121.285C165.999 115.125 164.471 109.148 161.552 103.803C163.22 100.166 164.083 96.2062 164.082 92.1987C164.082 84.9404 161.307 78.0769 156.269 72.8733C152.296 68.7693 147.267 66.0584 141.795 65.0092C139.944 58.9541 136.402 53.4984 131.56 49.3402C125.545 44.1773 117.905 41.3404 110.006 41.3368C106.323 41.3368 102.628 41.9667 99.1458 43.1737C92.3821 38.2221 84.2309 35.5283 75.8377 35.5283ZM75.8377 41.2539C84.025 41.2539 92.0548 44.3196 98.2047 49.7324C101.893 47.9736 105.924 47.062 110.005 47.063C123.596 47.063 135.01 57.0295 137.202 70.2548C148.943 70.5584 158.403 80.2858 158.403 92.199C158.399 96.3733 157.218 100.46 154.998 103.983C158.444 109.047 160.32 115.105 160.32 121.285C160.32 138.137 146.721 151.847 130.006 151.847C128.925 151.847 127.84 151.788 126.76 151.67C122.095 163.024 110.339 170.746 97.2541 170.746C86.4633 170.746 76.5745 165.643 70.7726 157.253C67.5233 158.671 64.0207 159.403 60.4802 159.405C50.1646 159.405 40.8344 153.168 36.5382 143.648C35.6228 143.738 34.7019 143.783 33.7826 143.783C18.2863 143.783 5.67871 131.071 5.67871 115.445C5.67871 105.071 11.3096 95.5673 20.2018 90.6319C20.1587 90.0498 20.1371 89.4663 20.1369 88.8825C20.1369 76.0662 30.332 65.2986 44.1589 63.1423C49.2103 49.9698 61.7013 41.2539 75.8377 41.2539Z"/></g><path fill="#191919" d="M216.56 156V56.6H248.76C259.96 56.6 268.64 58.7467 274.8 63.04C280.96 67.3333 284.04 73.96 284.04 82.92C284.04 86.9333 283.247 90.5267 281.66 93.7C280.073 96.78 277.46 99.3467 273.82 101.4C270.18 103.36 265.28 104.667 259.12 105.32V104.2C266.213 104.573 271.86 105.88 276.06 108.12C280.353 110.267 283.433 113.16 285.3 116.8C287.26 120.44 288.24 124.547 288.24 129.12C288.24 138.36 285.113 145.173 278.86 149.56C272.7 153.853 263.6 156 251.56 156H216.56ZM241.76 134.44L251.56 134.3C255.107 134.207 257.813 133.413 259.68 131.92C261.547 130.333 262.48 128.187 262.48 125.48C262.48 122.493 261.547 120.207 259.68 118.62C257.813 116.94 255.107 116.1 251.56 116.1H241.76V134.44ZM241.76 95.38H248.2C251.467 95.38 253.94 94.6333 255.62 93.14C257.393 91.5533 258.28 89.36 258.28 86.56C258.28 83.8533 257.393 81.8 255.62 80.4C253.94 78.9067 251.467 78.16 248.2 78.16H241.76V95.38ZM318.425 156V80.4H335.225L336.905 100.56L335.505 100.84C336.252 94.12 338.072 89.0333 340.965 85.58C343.952 82.1267 348.572 80.4 354.825 80.4H372.745V99.16H357.065C353.612 99.16 350.765 99.72 348.525 100.84C346.379 101.867 344.792 103.5 343.765 105.74C342.739 107.887 342.225 110.64 342.225 114V156H318.425ZM301.345 156V137.8H364.625V156H301.345ZM301.345 98.6V80.4H332.985V98.6H301.345ZM407.691 157.68C403.117 157.68 398.917 156.84 395.091 155.16C391.264 153.48 388.184 151.007 385.851 147.74C383.611 144.473 382.491 140.507 382.491 135.84C382.491 129.493 384.591 124.547 388.791 121C393.084 117.453 398.451 114.933 404.891 113.44L425.891 108.68C425.891 105.04 425.237 102.147 423.931 100C422.717 97.76 420.291 96.64 416.651 96.64C413.757 96.64 411.564 97.48 410.071 99.16C408.577 100.747 407.691 102.613 407.411 104.76L383.051 103.64C384.451 96.08 388.091 90.06 393.971 85.58C399.944 81.0067 407.317 78.72 416.091 78.72C428.131 78.72 436.717 81.4733 441.851 86.98C447.077 92.4867 449.691 100.28 449.691 110.36V133.88C449.691 135.933 450.017 137.333 450.671 138.08C451.324 138.827 452.211 139.2 453.331 139.2H455.291V156C454.731 156.093 453.751 156.233 452.351 156.42C451.044 156.7 449.597 156.84 448.011 156.84C443.904 156.84 440.404 156.093 437.511 154.6C434.617 153.107 432.377 151.007 430.791 148.3C429.297 145.593 428.457 142.467 428.271 138.92H430.231C429.951 142.467 428.877 145.687 427.011 148.58C425.237 151.38 422.717 153.62 419.451 155.3C416.277 156.887 412.357 157.68 407.691 157.68ZM413.431 140.88C415.951 140.88 418.144 140.413 420.011 139.48C421.877 138.453 423.324 136.96 424.351 135C425.377 132.947 425.891 130.427 425.891 127.44V124.36L413.291 127.44C410.957 128 409.277 128.84 408.251 129.96C407.317 131.08 406.851 132.76 406.851 135C406.851 136.773 407.364 138.22 408.391 139.34C409.511 140.367 411.191 140.88 413.431 140.88ZM495.836 156V80.4H519.636V156H495.836ZM469.236 156V137.8H542.036V156H469.236ZM470.636 98.6V80.4H513.756V98.6H470.636ZM495.696 72.84V54.36H519.496V72.84H495.696ZM553.741 156V80.4H575.441L576.141 101.96L573.901 101.4C574.741 96.1733 576.235 91.88 578.381 88.52C580.528 85.16 583.235 82.6867 586.501 81.1C589.861 79.5133 593.688 78.72 597.981 78.72C603.208 78.72 607.408 79.8867 610.581 82.22C613.755 84.5533 616.088 87.82 617.581 92.02C619.075 96.22 619.821 101.167 619.821 106.86V156H596.021V111.76C596.021 107 595.321 103.64 593.921 101.68C592.521 99.6267 590.468 98.6 587.761 98.6C585.988 98.6 584.308 99.16 582.721 100.28C581.228 101.307 579.968 102.893 578.941 105.04C578.008 107.187 577.541 109.893 577.541 113.16V156H553.741Z"/><path fill="#ED64A6" d="M684.6 156V56.6H708.12C716.707 56.6 724.173 58.56 730.52 62.48C736.96 66.3067 741.907 71.9533 745.36 79.42C748.907 86.7933 750.68 95.8 750.68 106.44C750.68 117.08 748.907 126.087 745.36 133.46C741.907 140.833 736.96 146.433 730.52 150.26C724.173 154.087 716.707 156 708.12 156H684.6ZM696.64 144.24H707.42C717.127 144.24 724.64 141.113 729.96 134.86C735.373 128.513 738.08 119.04 738.08 106.44C738.08 93.84 735.373 84.3667 729.96 78.02C724.64 71.58 717.127 68.36 707.42 68.36H696.64V144.24ZM797.945 157.68C791.132 157.68 785.159 156.093 780.025 152.92C774.985 149.747 771.065 145.267 768.265 139.48C765.465 133.6 764.065 126.74 764.065 118.9C764.065 110.967 765.465 104.107 768.265 98.32C771.065 92.5333 774.985 88.0533 780.025 84.88C785.159 81.7067 791.132 80.12 797.945 80.12C804.759 80.12 810.685 81.7067 815.725 84.88C820.859 88.0533 824.825 92.5333 827.625 98.32C830.425 104.107 831.825 110.967 831.825 118.9C831.825 126.74 830.425 133.6 827.625 139.48C824.825 145.267 820.859 149.747 815.725 152.92C810.685 156.093 804.759 157.68 797.945 157.68ZM797.945 146.48C804.759 146.48 810.032 144.053 813.765 139.2C817.592 134.253 819.505 127.487 819.505 118.9C819.505 110.313 817.592 103.593 813.765 98.74C810.032 93.7933 804.759 91.32 797.945 91.32C791.132 91.32 785.812 93.7933 781.985 98.74C778.252 103.593 776.385 110.313 776.385 118.9C776.385 127.487 778.252 134.253 781.985 139.2C785.812 144.053 791.132 146.48 797.945 146.48ZM883.851 157.68C876.944 157.68 870.924 156.093 865.791 152.92C860.657 149.747 856.691 145.267 853.891 139.48C851.091 133.6 849.691 126.74 849.691 118.9C849.691 111.06 851.091 104.247 853.891 98.46C856.691 92.6733 860.657 88.1933 865.791 85.02C870.924 81.7533 876.944 80.12 883.851 80.12C889.357 80.12 894.257 81.1467 898.551 83.2C902.844 85.16 906.391 88.0533 909.191 91.88C911.991 95.7067 913.904 100.373 914.931 105.88L902.611 106.72C901.491 101.773 899.251 97.9933 895.891 95.38C892.624 92.6733 888.611 91.32 883.851 91.32C877.037 91.32 871.671 93.7933 867.751 98.74C863.924 103.593 862.011 110.313 862.011 118.9C862.011 127.487 863.924 134.253 867.751 139.2C871.671 144.053 877.037 146.48 883.851 146.48C888.611 146.48 892.717 145.08 896.171 142.28C899.717 139.48 902.051 135.28 903.171 129.68L915.491 130.52C914.464 136.027 912.504 140.833 909.611 144.94C906.717 148.953 903.077 152.08 898.691 154.32C894.304 156.56 889.357 157.68 883.851 157.68ZM967.236 157.68C960.796 157.68 955.243 156.56 950.576 154.32C945.909 152.08 942.223 149.093 939.516 145.36C936.903 141.533 935.409 137.287 935.036 132.62L947.356 131.78C948.103 136.353 950.109 139.947 953.376 142.56C956.736 145.173 961.356 146.48 967.236 146.48C972.743 146.48 976.989 145.687 979.976 144.1C983.056 142.513 984.596 140.04 984.596 136.68C984.596 134.533 984.083 132.76 983.056 131.36C982.029 129.96 980.116 128.793 977.316 127.86C974.516 126.833 970.409 125.853 964.996 124.92C957.809 123.613 952.163 122.027 948.056 120.16C944.043 118.2 941.196 115.773 939.516 112.88C937.836 109.987 936.996 106.533 936.996 102.52C936.996 98.2267 938.069 94.4 940.216 91.04C942.363 87.68 945.536 85.02 949.736 83.06C953.936 81.1 959.069 80.12 965.136 80.12C971.296 80.12 976.429 81.24 980.536 83.48C984.736 85.6267 988.049 88.52 990.476 92.16C992.903 95.7067 994.489 99.6267 995.236 103.92L982.916 104.76C982.356 102.147 981.283 99.86 979.696 97.9C978.203 95.8467 976.196 94.26 973.676 93.14C971.249 91.9267 968.356 91.32 964.996 91.32C959.583 91.32 955.569 92.3933 952.956 94.54C950.343 96.6867 949.036 99.3467 949.036 102.52C949.036 105.04 949.643 107.047 950.856 108.54C952.069 110.033 954.029 111.247 956.736 112.18C959.443 113.02 963.036 113.813 967.516 114.56C975.169 115.773 981.096 117.36 985.296 119.32C989.496 121.187 992.436 123.52 994.116 126.32C995.796 129.12 996.636 132.573 996.636 136.68C996.636 141.067 995.329 144.847 992.716 148.02C990.196 151.1 986.696 153.48 982.216 155.16C977.829 156.84 972.836 157.68 967.236 157.68Z"/><line x1="1072.5" x2="1072.5" y1="27.5" y2="184.5" stroke="gray"/><circle cx="1153.5" cy="106" r="17.5" fill="#FF5CAA"/><path fill="#191919" d="M1213.08 134L1230.36 77.2H1239.64L1256.92 134H1249.56L1235 83.44L1220.44 134H1213.08ZM1221.8 117.84L1224.2 111.12H1245.8L1248.2 117.84H1221.8ZM1280.81 134V88.56C1280.81 86.8533 1280.33 85.52 1279.37 84.56C1278.41 83.6 1277.08 83.12 1275.37 83.12H1265.37V77.2H1275.69C1279.58 77.2 1282.52 78.2133 1284.49 80.24C1286.52 82.2133 1287.53 85.1467 1287.53 89.04V134H1280.81ZM1263.77 134V128.08H1302.17V134H1263.77ZM1313.34 146V91.6H1319.58L1319.74 101.2L1318.78 100.72C1319.84 97.4133 1321.6 94.9067 1324.06 93.2C1326.56 91.4933 1329.44 90.64 1332.7 90.64C1336.91 90.64 1340.35 91.68 1343.02 93.76C1345.74 95.84 1347.74 98.56 1349.02 101.92C1350.3 105.28 1350.94 108.907 1350.94 112.8C1350.94 116.693 1350.3 120.32 1349.02 123.68C1347.74 127.04 1345.74 129.76 1343.02 131.84C1340.35 133.92 1336.91 134.96 1332.7 134.96C1330.51 134.96 1328.46 134.587 1326.54 133.84C1324.67 133.093 1323.07 132.053 1321.74 130.72C1320.46 129.387 1319.58 127.813 1319.1 126L1320.06 124.88V146H1313.34ZM1332.06 128.56C1335.74 128.56 1338.62 127.173 1340.7 124.4C1342.83 121.627 1343.9 117.76 1343.9 112.8C1343.9 107.84 1342.83 103.973 1340.7 101.2C1338.62 98.4267 1335.74 97.04 1332.06 97.04C1329.6 97.04 1327.47 97.6267 1325.66 98.8C1323.9 99.9733 1322.51 101.733 1321.5 104.08C1320.54 106.427 1320.06 109.333 1320.06 112.8C1320.06 116.267 1320.54 119.173 1321.5 121.52C1322.46 123.867 1323.84 125.627 1325.66 126.8C1327.47 127.973 1329.6 128.56 1332.06 128.56ZM1362.91 134V77.2H1369.63V100.96L1368.83 100.8C1369.36 98.4533 1370.27 96.5333 1371.55 95.04C1372.83 93.5467 1374.4 92.4533 1376.27 91.76C1378.13 91.0133 1380.16 90.64 1382.35 90.64C1385.39 90.64 1387.95 91.3333 1390.03 92.72C1392.16 94.0533 1393.76 95.9467 1394.83 98.4C1395.95 100.8 1396.51 103.573 1396.51 106.72V134H1389.79V108.64C1389.79 104.533 1389.04 101.493 1387.55 99.52C1386.11 97.5467 1383.89 96.56 1380.91 96.56C1377.49 96.56 1374.75 97.6 1372.67 99.68C1370.64 101.76 1369.63 104.773 1369.63 108.72V134H1362.91ZM1421.28 134.96C1418.61 134.96 1416.21 134.48 1414.08 133.52C1411.94 132.56 1410.26 131.227 1409.04 129.52C1407.81 127.76 1407.2 125.733 1407.2 123.44C1407.2 119.813 1408.26 117.013 1410.4 115.04C1412.58 113.013 1416 111.547 1420.64 110.64L1434.88 107.76C1434.88 104.133 1434.05 101.44 1432.4 99.68C1430.8 97.92 1428.48 97.04 1425.44 97.04C1422.5 97.04 1420.21 97.7067 1418.56 99.04C1416.9 100.32 1415.76 102.187 1415.12 104.64L1408 104.08C1408.8 100.08 1410.69 96.8533 1413.68 94.4C1416.72 91.8933 1420.64 90.64 1425.44 90.64C1430.56 90.64 1434.53 92.1867 1437.36 95.28C1440.18 98.32 1441.6 102.533 1441.6 107.92V125.52C1441.6 126.48 1441.81 127.147 1442.24 127.52C1442.66 127.893 1443.3 128.08 1444.16 128.08H1446.88V134C1446.56 134.053 1446.05 134.08 1445.36 134.08C1444.66 134.133 1444 134.16 1443.36 134.16C1441.54 134.16 1440 133.867 1438.72 133.28C1437.49 132.693 1436.56 131.76 1435.92 130.48C1435.28 129.147 1434.93 127.44 1434.88 125.36H1436.16C1435.78 127.173 1434.88 128.827 1433.44 130.32C1432.05 131.76 1430.29 132.907 1428.16 133.76C1426.02 134.56 1423.73 134.96 1421.28 134.96ZM1421.92 129.04C1424.8 129.04 1427.2 128.56 1429.12 127.6C1431.04 126.587 1432.48 125.2 1433.44 123.44C1434.4 121.627 1434.88 119.547 1434.88 117.2V113.52L1421.92 116.08C1419.04 116.613 1417.04 117.44 1415.92 118.56C1414.8 119.627 1414.24 121.04 1414.24 122.8C1414.24 124.773 1414.9 126.32 1416.24 127.44C1417.62 128.507 1419.52 129.04 1421.92 129.04Z"/></svg>